<?xml version="1.0" encoding="UTF-8" standalone="no"?>
<!-- Created with Inkscape (http://www.inkscape.org/) -->

<svg
   xmlns:dc="http://purl.org/dc/elements/1.1/"
   xmlns:cc="http://creativecommons.org/ns#"
   xmlns:rdf="http://www.w3.org/1999/02/22-rdf-syntax-ns#"
   xmlns:svg="http://www.w3.org/2000/svg"
   xmlns="http://www.w3.org/2000/svg"
   version="1.1"
   width="400"
   height="240"
   id="svg2">
  <defs
     id="defs4" />
  <metadata
     id="metadata7">
    <rdf:RDF>
      <cc:Work
         rdf:about="">
        <dc:format>image/svg+xml</dc:format>
        <dc:type
           rdf:resource="http://purl.org/dc/dcmitype/StillImage" />
        <dc:title></dc:title>
      </cc:Work>
    </rdf:RDF>
  </metadata>
  <g
     transform="translate(0,-812.36218)"
     id="layer1">
    <g
       transform="matrix(0.45350609,0,0,0.45350609,-155.61365,643.91542)"
       id="text2985"
       style="font-size:146.09892273px;font-style:normal;font-weight:normal;line-height:125%;letter-spacing:0px;word-spacing:0px;fill:#000000;fill-opacity:1;stroke:none;font-family:Sans" />
  </g>
  <g
     transform="translate(-20.75097,-5.0729085)"
     id="g3888">
    <g
       transform="translate(3.75,-3.7499994)"
       id="g3047">
      <path
         d="m 108.73133,98.874999 0,20.218751 c -1.25887,-1.5239 -4.30568,-4.0625 -9.9375,-4.0625 0,0 -11.875,0.0888 -11.875,11.75 l 0,10.84375 c 0,11.59492 12,11.59375 12,11.59375 7.22198,0 10.53125,-4.24368 10.53125,-4.90625 0.0616,4.80572 7.12909,5.78242 10.78125,4.5625 -4.44982,-3.72488 -7.46875,-9.52346 -7.46875,-17.5 0,-5.62615 1.94902,-10.95492 5.4375,-15.03125 l 0,-17.468751 z m -7.90625,23.718751 c 3.08094,0.15736 6.15625,2.20527 6.15625,5.75 l 0,7.4375 c 0,6.95695 -12.3125,8.01706 -12.3125,0 l 0,-7.5 c 0,-4.10791 3.07531,-5.84486 6.15625,-5.6875 z"
         id="path2990"
         style="font-size:146.09892273px;font-style:normal;font-variant:normal;font-weight:bold;font-stretch:normal;text-align:start;line-height:125%;letter-spacing:0px;word-spacing:0px;writing-mode:lr-tb;text-anchor:start;fill:#000000;fill-opacity:1;stroke:none;font-family:Musket;-inkscape-font-specification:Musket Bold" />
      <path
         d="m 135.45683,122.20317 c -5.62458,0 -9.16207,4.31573 -9.16207,9.16207 0,12.55805 18.32415,11.81518 18.3949,0 0.0354,-5.37696 -4.24499,-9.16207 -9.23283,-9.16207"
         id="path2992"
         style="font-size:146.09892273px;font-style:normal;font-variant:normal;font-weight:bold;font-stretch:normal;text-align:start;line-height:125%;letter-spacing:0px;word-spacing:0px;writing-mode:lr-tb;text-anchor:start;fill:#000000;fill-opacity:1;stroke:none;font-family:Musket;-inkscape-font-specification:Musket Bold" />
      <path
         d="m 152.54383,98.860754 0,17.326746 c 3.53938,3.90547 5.69604,9.13995 5.65625,15.1875 -0.0366,6.11033 -2.02709,11.02564 -5.1875,14.6875 1.81363,3.83118 12.74776,3.93322 16.1875,2.5 l 0,-7.15625 c 0,0 -7.15625,0.28398 -7.15625,-1.96875 l 0,-16.84375 8.34375,0 0,-7.15625 -8.34375,0 0,-16.576746 z"
         id="path2994"
         style="font-size:146.09892273px;font-style:normal;font-variant:normal;font-weight:bold;font-stretch:normal;text-align:start;line-height:125%;letter-spacing:0px;word-spacing:0px;writing-mode:lr-tb;text-anchor:start;fill:#000000;fill-opacity:1;stroke:none;font-family:Musket;-inkscape-font-specification:Musket Bold" />
      <path
         d="m 184.91227,120.07538 c 0,-7.02321 -8.61337,-5.56557 -11.72744,-4.63797 l 0,7.15572 c 2.38524,0 2.84904,1.19262 2.84904,2.05396 l 0,23.91869 12.65504,0 0,-7.15573 -3.18032,0 0,-13.18509 c 0,-6.8907 12.65504,-8.08332 12.65504,0 l 0,20.34082 12.65503,0 0,-7.15573 -3.18032,0 c 0,-3.31283 0,-8.54713 0,-13.45012 0,-6.62567 12.52253,-7.61952 12.52253,0.33129 l 0,20.27456 12.58878,0 0,-7.15573 -3.11407,0 0,-14.70899 c 0,-11.72744 -12.05873,-11.66119 -12.05873,-11.66119 0,0 -8.08332,-0.33128 -11.46241,5.30054 -3.31284,-5.3668 -10.53483,-5.30054 -10.53483,-5.30054 -8.08331,0 -10.66734,5.03551 -10.66734,5.03551"
         id="path2996"
         style="font-size:146.09892273px;font-style:normal;font-variant:normal;font-weight:bold;font-stretch:normal;text-align:start;line-height:125%;letter-spacing:0px;word-spacing:0px;writing-mode:lr-tb;text-anchor:start;fill:#000000;fill-opacity:1;stroke:none;font-family:Musket;-inkscape-font-specification:Musket Bold" />
      <path
         d="m 246.46348,149.22835 c 7.15572,0 10.46856,-4.24043 10.46856,-5.16803 0,5.76434 8.01707,6.29439 11.59493,4.50546 l 0,-6.95696 c -2.38523,0 -2.78278,-1.32513 -2.78278,-2.25273 l 0,-16.76296 2.78278,0 0,-7.15572 -11.59493,0 0,3.57786 c -1.25888,-1.45765 -5.10177,-4.04166 -10.60108,-4.04166 0,0 -11.85995,0.0663 -11.92621,11.72745 l 0,10.53481 c 0.0663,11.66118 12.05873,11.99248 12.05873,11.99248 m 8.72194,-20.60585 0,7.28824 c 0,7.02321 -13.05258,8.08332 -13.05258,0 l 0,-7.28824 c 0.53006,-8.54711 13.05258,-6.95695 13.05258,0"
         id="path2998"
         style="font-size:146.09892273px;font-style:normal;font-variant:normal;font-weight:bold;font-stretch:normal;text-align:start;line-height:125%;letter-spacing:0px;word-spacing:0px;writing-mode:lr-tb;text-anchor:start;fill:#000000;fill-opacity:1;stroke:none;font-family:Musket;-inkscape-font-specification:Musket Bold" />
      <path
         d="m 284.70819,103.6437 -7.15573,0 0,7.08948 7.15573,0 0,-7.08948 m -9.47471,40.35036 c 0,5.8306 8.61338,6.22814 12.58876,4.57172 l 0,-7.15573 c -2.71651,0 -3.04779,-0.99385 -3.11405,-2.05396 l 0,-23.91868 -12.58878,0 0,7.15572 3.11407,0 0,21.40093"
         id="path3000"
         style="font-size:146.09892273px;font-style:normal;font-variant:normal;font-weight:bold;font-stretch:normal;text-align:start;line-height:125%;letter-spacing:0px;word-spacing:0px;writing-mode:lr-tb;text-anchor:start;fill:#000000;fill-opacity:1;stroke:none;font-family:Musket;-inkscape-font-specification:Musket Bold" />
      <path
         d="m 305.58117,148.56578 0,-7.15573 -3.1141,0 0,-37.96512 c 0,-5.830585 -8.61339,-6.228129 -12.58877,-4.571711 l 0,7.155731 c 0,0 3.11408,-0.0663 3.11408,2.12021 l 0,40.41662 12.58879,0"
         id="path3002"
         style="font-size:146.09892273px;font-style:normal;font-variant:normal;font-weight:bold;font-stretch:normal;text-align:start;line-height:125%;letter-spacing:0px;word-spacing:0px;writing-mode:lr-tb;text-anchor:start;fill:#000000;fill-opacity:1;stroke:none;font-family:Musket;-inkscape-font-specification:Musket Bold" />
    </g>
    <g
       transform="translate(-3.75,-0.375)"
       id="text3109"
       style="font-size:41.28734207px;font-style:normal;font-weight:normal;line-height:125%;letter-spacing:0px;word-spacing:0px;fill:#000000;fill-opacity:1;stroke:#000000;stroke-width:1.53156137;stroke-miterlimit:4;stroke-opacity:1;font-family:Sans">
      <path
         d="m 322.31047,139.75782 -5.07834,0 0,4.87191 5.07834,0 0,-4.87191"
         id="path3882"
         style="font-variant:normal;font-weight:bold;font-stretch:normal;text-align:start;line-height:125%;writing-mode:lr-tb;text-anchor:start;stroke:#000000;font-family:Musket;-inkscape-font-specification:Musket Bold" />
      <path
         d="m 328.16214,116.63691 0,4.41775 4.41774,0 0,-4.41775 -4.41774,0 m -3.42685,38.31466 c 2.47723,1.03218 7.84459,0.78445 7.84459,-2.84883 l 0,-28.11668 -7.84459,0 0,4.45903 1.9405,0 0,20.80882 c 0,1.44506 -1.9405,1.23862 -1.9405,1.23862 0,1.48635 0,2.97269 0,4.45904"
         id="path3884"
         style="font-variant:normal;font-weight:bold;font-stretch:normal;text-align:start;line-height:125%;writing-mode:lr-tb;text-anchor:start;stroke:#000000;font-family:Musket;-inkscape-font-specification:Musket Bold" />
      <path
         d="m 340.72924,138.14762 -4.83062,0 0,2.10565 c 0.28901,3.96358 5.65637,4.95448 8.67034,4.95448 4.04616,0 9.24837,-1.48635 9.24837,-6.11052 0,-6.60597 -11.31274,-5.94538 -11.31274,-9.41352 0,0 -0.24772,-1.65149 2.55982,-1.65149 1.36248,0 2.80754,0.41287 2.80754,2.43595 0,0 0.0413,0 4.87191,0 l 0,-2.35338 c 0,-3.26169 -4.70676,-4.41774 -7.72074,-4.41774 -3.71586,0 -8.42262,1.19734 -8.42262,5.98666 0,6.5234 11.31274,5.49122 11.31274,9.41352 0,1.65149 -2.22952,1.98179 -3.34428,1.98179 -1.77535,0 -3.83972,-0.24773 -3.83972,-2.9314"
         id="path3886"
         style="font-variant:normal;font-weight:bold;font-stretch:normal;text-align:start;line-height:125%;writing-mode:lr-tb;text-anchor:start;stroke:#000000;font-family:Musket;-inkscape-font-specification:Musket Bold" />
    </g>
  </g>
</svg>
